PathFileType	4	(X/Y/Z)	/Users/mathieubourgeois/Desktop/Analyse/Traitement/Sujet_07/Data/Transformed_Sujet_07_velo_80.trc
DataRate	CameraRate	NumFrames	NumMarkers	Units	OrigDataRate	OrigDataStartFrame	OrigNumFrames
120.000000	120.000000	5	36	mm	120.000000	1401	1868
Frame#	Time	RFHD			LFHD			RBHD			LBHD			C7			CLAV			RSHO			LSHO			STRN			T10			RBWT			LBWT			RFWT			LFWT			RKNI			LKNI			RKNE			LKNE			LANI			RANI			LANE			RANE			LTOE			RTOE			LHEE			RHEE			RHUM			LHUM			RRAD			LRAD			RWRA			RWRB			LWRA			LWRB			LCAR			RCAR			
		X1	Y1	Z1	X2	Y2	Z2	X3	Y3	Z3	X4	Y4	Z4	X5	Y5	Z5	X6	Y6	Z6	X7	Y7	Z7	X8	Y8	Z8	X9	Y9	Z9	X10	Y10	Z10	X11	Y11	Z11	X12	Y12	Z12	X13	Y13	Z13	X14	Y14	Z14	X15	Y15	Z15	X16	Y16	Z16	X17	Y17	Z17	X18	Y18	Z18	X19	Y19	Z19	X20	Y20	Z20	X21	Y21	Z21	X22	Y22	Z22	X23	Y23	Z23	X24	Y24	Z24	X25	Y25	Z25	X26	Y26	Z26	X27	Y27	Z27	X28	Y28	Z28	X29	Y29	Z29	X30	Y30	Z30	X31	Y31	Z31	X32	Y32	Z32	X33	Y33	Z33	X34	Y34	Z34	X35	Y35	Z35	X36	Y36	Z36	

1402	11.675	267.8406372070312	1338.842163085938	145.3053741455078	281.4259948730469	1319.627685546875	14.69340991973872	222.2650604248047	1483.656127929688	136.4583740234374	233.9484558105469	1478.337036132812	-7.441029071807924	71.70909881591797	1483.802001953125	48.77005386352531	48.20858001708984	1349.226196289062	53.61472702026359	81.42779541015622	1436.775024414062	194.8359069824218	101.6545486450195	1457.938720703125	-74.73298645019538	-110.371826171875	1280.522216796875	45.45116806030264	-180.1134948730469	1509.690551757812	50.23890686035145	-429.7011413574219	1301.555786132812	126.867477416992	-443.7583923339844	1307.251586914062	13.13140678405748	-273.3335876464844	1199.211547851562	156.7249603271483	-295.014892578125	1222.619140625	-55.26400375366222	-198.5549926757813	674.3787841796875	116.6480102539062	-19.98723220825195	919.3397216796875	-29.66646194458014	-204.5585021972657	736.9047241210938	218.5415496826171	-12.48879432678221	966.6005859375	-135.0090332031251	-167.16552734375	571.2982177734375	-26.87462997436529	-317.2737731933594	309.4332885742188	117.1316833496093	-188.4802398681641	562.8831787109375	-115.4507064819337	-351.3359985351562	304.9393920898438	200.9604339599609	8.330951690673839	491.1700744628906	-92.57779693603518	-185.0244903564453	160.7320556640625	185.1875610351562	-248.4100036621094	555.64501953125	-73.94667053222662	-405.9166564941406	304.7978515625	154.5516357421874	86.7331848144531	1106.648559570312	236.6344757080078	98.80911254882814	1124.43408203125	-135.4243621826172	135.0575408935547	1132.930541992188	277.6061096191406	160.1748504638672	1139.40966796875	-158.0213623046875	323.6828918457031	935.36962890625	252.1671905517578	281.6087646484374	901.6605834960938	306.1974487304688	317.6424560546875	930.78271484375	-101.7400054931641	276.8695678710938	888.1246337890625	-152.0966186523438	371.5783386230469	915.3701171875	-191.6135559082031	371.2921142578124	924.7247924804688	343.4993591308594	
1403	11.68333333333333	267.0224914550781	1338.5078125	145.9401550292968	280.5118408203125	1319.343139648438	15.34872150421138	221.2406921386718	1483.262451171875	137.1859893798828	232.9416809082031	1478.043212890625	-6.755520820617738	70.76161956787109	1483.483276367188	49.47073745727531	47.25840759277343	1348.902954101562	54.24302673339836	80.12785339355466	1436.450805664062	195.729766845703	100.957405090332	1457.62646484375	-73.9127502441407	-111.3857040405273	1280.378051757812	45.43275833129874	-181.0085906982422	1509.6455078125	49.96736907958973	-430.9986572265625	1301.501098632812	126.071922302246	-444.5783386230469	1306.817016601562	12.25355625152574	-274.4754028320312	1199.686157226562	156.7260131835936	-295.4675598144531	1222.180786132812	-55.62727355957043	-194.1854553222657	677.8094482421875	116.0758819580077	-21.65584182739257	913.538818359375	-28.87312698364264	-199.51416015625	740.3529052734375	217.8041992187499	-13.92286014556883	961.0718383789062	-133.9600524902344	-158.8820953369141	561.72509765625	-27.74445343017583	-325.1339721679688	317.2581787109375	116.3145217895507	-180.3229217529297	552.6064453125	-116.154884338379	-359.2234497070312	313.7720336914062	200.2303161621093	17.56735229492189	485.6087951660156	-92.92707824707034	-195.4217681884766	166.8768615722656	184.9528198242187	-240.4796905517578	544.281982421875	-74.82123565673834	-413.9314575195312	314.6312255859375	153.964630126953	86.21163177490232	1106.373046875	236.6775665283203	98.32908630371095	1124.170043945312	-135.1732635498047	134.3404083251953	1132.600830078125	277.8673706054687	159.6666870117188	1139.281372070312	-157.8903045654297	323.4938964843749	935.4745483398438	252.2381286621093	281.4713439941406	901.7239379882812	306.2650756835938	317.4898376464844	930.8299560546875	-101.6892852783203	276.7481079101562	888.1341552734375	-152.0145568847657	371.4335632324219	915.4544067382812	-191.583740234375	371.1385498046874	924.844482421875	343.5418395996094	
1404	11.69166666666667	266.0751037597656	1338.148681640625	146.6670532226562	279.5283508300781	1319.029418945312	16.04116439819331	220.2880401611328	1482.9072265625	137.9728851318359	231.8420715332031	1477.735473632812	-5.958832740783754	69.68312835693359	1483.203125	50.30171203613273	46.25693130493163	1348.618896484375	54.8345642089843	78.7812805175781	1436.0546875	196.6276550292968	100.1479034423828	1457.261474609375	-73.06717681884773	-112.4425811767578	1280.251708984375	45.25735473632803	-181.947265625	1509.600708007812	49.79752349853504	-432.3609313964844	1301.389770507812	125.1081619262694	-445.38427734375	1306.281860351562	11.22696304321276	-275.5899658203125	1200.121704101562	156.7092285156249	-295.8583984375	1221.582275390625	-56.04832077026379	-189.1037902832031	681.7340087890625	115.5592651367187	-23.43709182739257	907.2155151367188	-28.11306953430182	-193.6814575195313	744.2440795898438	217.1561126708984	-15.4137554168701	955.0438842773438	-132.9866485595704	-152.1876525878906	550.9539794921875	-28.08584976196294	-332.5341796875	326.1461791992188	115.6537170410156	-172.1254119873047	542.0023803710938	-116.9751663208008	-366.4062194824219	323.6157836914062	199.6979217529296	27.59997749328614	476.0451049804688	-91.39740753173831	-205.1628570556641	174.2964477539062	184.6825103759765	-232.2125244140625	532.7019653320312	-76.34391021728521	-421.3545227050781	325.5413208007812	153.5792388916015	85.67979431152341	1106.030517578125	236.6110687255859	97.85044097900392	1123.910522460938	-134.8086853027344	133.5773468017578	1132.293090820312	278.0643310546874	159.1071319580078	1139.002075195312	-157.5526885986328	323.3143920898437	935.5870361328125	252.2509307861328	281.3375244140624	901.798583984375	306.3002624511719	317.3403625488281	930.8643188476562	-101.6874313354492	276.5850524902344	888.1297607421875	-151.9633331298828	371.3009033203125	915.5136108398438	-191.5777435302734	370.9934387207031	924.9934692382812	343.5344543457031	
1405	11.7	265.1011047363281	1337.765869140625	147.4966430664062	278.46240234375	1318.691650390625	16.81316566467281	219.2566223144531	1482.509033203125	138.8519439697265	230.7174835205078	1477.391235351562	-5.081785202026429	68.57443237304688	1482.926879882812	51.23440170288077	45.24679565429687	1348.376831054688	55.10161209106437	77.40068817138669	1435.479614257812	197.213882446289	99.37521362304689	1456.89453125	-72.23104095458991	-113.4891052246094	1280.135009765625	44.43687057495108	-182.9656372070312	1509.538818359375	49.62993240356434	-433.7159423828125	1301.250854492188	124.1000518798827	-446.1646423339844	1305.6376953125	10.05600833892809	-276.7314453125	1200.561279296875	156.6423034667968	-296.1586303710938	1220.888793945312	-56.42498016357433	-183.5554351806641	686.1647338867188	115.1309738159179	-25.37670516967773	900.3253784179688	-27.38625144958502	-187.306625366211	748.627197265625	216.6820220947265	-16.82639312744139	948.3618774414062	-131.3137664794922	-145.0478973388672	540.5543823242188	-28.9437808990479	-339.2026672363281	335.95458984375	115.1670608520507	-164.0945587158203	531.1639404296875	-117.9536895751954	-372.8958740234375	334.3756103515625	199.3087921142577	35.66372680664064	467.419921875	-91.6433029174805	-214.2204284667969	182.5559692382812	184.377944946289	-224.240234375	520.662353515625	-77.77392578125006	-428.0111694335938	337.4296264648438	153.383804321289	85.1245422363281	1105.638061523438	236.4875946044921	97.41558837890626	1123.64501953125	-134.3384094238282	132.8134765625	1131.90478515625	278.2726440429687	158.3999633789063	1138.748413085938	-156.838134765625	323.1258239746093	935.7178955078125	252.1939697265625	281.2212219238281	901.8861694335938	306.2513122558594	317.1839294433594	930.8685913085938	-101.7526931762695	276.4162902832031	888.1432495117188	-152.0186920166016	371.1621398925781	915.5723266601562	-191.6806488037109	370.8861999511718	925.1224365234375	343.4330444335938	
1406	11.70833333333333	264.0256958007812	1337.354125976562	148.4013366699218	277.3183288574219	1318.350952148438	17.67189598083491	218.1644287109375	1482.096435546875	139.8164825439453	229.5464172363281	1477.069458007812	-4.121169567108216	67.43206024169922	1482.658447265625	52.19947433471671	44.05519485473632	1347.91162109375	56.03815078735344	75.94310760498044	1435.054931640625	198.2970123291015	98.56032562255861	1456.51953125	-71.30941009521491	-114.7195358276367	1279.960815429688	44.69246292114249	-184.0516052246094	1509.471801757812	49.53506469726551	-435.1001281738281	1301.021850585938	122.9637451171874	-446.9736022949219	1304.979125976562	8.835848808288439	-277.8584594726562	1200.98681640625	156.5146026611327	-296.4393920898438	1220.138305664062	-56.87825775146496	-178.2558135986328	691.131591796875	115.0480270385741	-27.86839294433593	893.22265625	-26.53260993957525	-180.4225311279297	753.4597778320312	216.3803100585937	-18.83198547363279	941.5245971679688	-130.6621856689454	-138.1968536376953	529.7986450195312	-29.89569473266607	-344.9154052734375	346.5614013671875	114.8170776367187	-156.3361206054687	520.18505859375	-118.9831695556641	-378.428955078125	345.8459167480469	199.1462097167968	43.87410354614259	457.5968933105469	-91.4444274902344	-222.721923828125	191.5046081542969	184.0612030029297	-216.7375946044922	508.9394226074219	-79.34191894531256	-433.713134765625	350.1799011230469	153.4170379638671	84.54756164550778	1105.24609375	236.3708496093749	97.01792144775392	1123.40380859375	-133.7371215820313	131.9734344482422	1131.425415039062	278.4655761718749	157.9522247314453	1138.631103515625	-156.2988586425782	322.9394836425781	935.86279296875	252.0204467773437	281.1435852050781	901.9688110351562	306.1065673828125	317.0703430175781	930.8600463867188	-101.90771484375	276.2664184570312	888.1700439453125	-152.1776885986328	371.0030517578125	915.6135864257812	-191.8589019775391	370.8040161132812	925.2831420898438	343.1812438964844	
